<?xml version="1.0" encoding="iso-8859-1"?>
<!-- Generator: Adobe Illustrator 16.0.0, SVG Export Plug-In . SVG Version: 6.00 Build 0)  -->
<!DOCTYPE svg PUBLIC "-//W3C//DTD SVG 1.1//EN" "http://www.w3.org/Graphics/SVG/1.1/DTD/svg11.dtd">
<svg version="1.1" id="Capa_1" xmlns="http://www.w3.org/2000/svg" xmlns:xlink="http://www.w3.org/1999/xlink" x="0px" y="0px"
	 width="45.758px" height="45.759px" viewBox="0 0 45.758 45.759" style="enable-background:new 0 0 45.758 45.759;"
	 xml:space="preserve">
<g>
	<g>
		<path d="M34.883,15.882l-0.967,0.962l-2.562,2.551c2.397,2.259,3.905,5.455,3.905,9.001c0,6.826-5.554,12.381-12.381,12.381
			c-6.826,0-12.38-5.555-12.38-12.381c0-3.547,1.508-6.743,3.906-9.001c-1.414-1.407-2.723-2.71-3.531-3.513
			c-3.294,3.162-5.357,7.599-5.357,12.515c0,9.573,7.789,17.362,17.363,17.362s17.363-7.79,17.363-17.362
			C40.241,23.48,38.177,19.044,34.883,15.882z"/>
		<path d="M21.932,22.672c0.261,0.26,0.603,0.391,0.944,0.391c0.342,0,0.684-0.13,0.945-0.391c2.589-2.576,9.623-9.575,9.766-9.719
			c2.964-2.963,2.964-7.769,0-10.731C32.106,0.741,30.165,0,28.221,0c-1.932,0-3.865,0.734-5.344,2.201
			C21.398,0.734,19.466,0,17.533,0c-1.942,0-3.885,0.741-5.367,2.222c-2.963,2.962-2.963,7.768,0,10.731
			C12.313,13.097,19.344,20.097,21.932,22.672z"/>
	</g>
</g>
<g>
</g>
<g>
</g>
<g>
</g>
<g>
</g>
<g>
</g>
<g>
</g>
<g>
</g>
<g>
</g>
<g>
</g>
<g>
</g>
<g>
</g>
<g>
</g>
<g>
</g>
<g>
</g>
<g>
</g>
</svg>
